<?xml version="1.0" standalone="no"?>
<!DOCTYPE svg PUBLIC "-//W3C//DTD SVG 20010904//EN"
 "http://www.w3.org/TR/2001/REC-SVG-20010904/DTD/svg10.dtd">
<svg version="1.0" xmlns="http://www.w3.org/2000/svg"
 width="80.000000pt" height="80.000000pt" viewBox="0 0 80.000000 80.000000"
 preserveAspectRatio="xMidYMid meet">
<metadata>
Created by potrace 1.11, written by Peter Selinger 2001-2013
</metadata>
<g transform="translate(0.000000,80.000000) scale(0.100000,-0.100000)"
fill="#000000" stroke="none">
<path d="M309 568 c0 -7 0 -48 0 -90 l0 -77 -91 2 c-49 1 -92 -1 -94 -5 -11
-17 18 -86 48 -115 55 -53 87 -61 238 -59 121 1 139 4 175 24 22 13 50 38 62
55 24 35 41 97 27 98 -61 5 -167 2 -173 -6 -4 -5 -7 -37 -6 -69 1 -47 -1 -55
-9 -40 -21 37 -97 104 -118 104 -12 0 -18 3 -14 7 4 4 36 6 71 5 58 -2 65 0
65 17 0 56 -43 113 -105 142 -47 22 -75 24 -76 7z"/>
</g>
</svg>
